<svg width="150" height="46" viewBox="0 0 150 46" fill="none" xmlns="http://www.w3.org/2000/svg">
<path d="M59.866 26.1877C59.866 24.882 59.5236 23.9081 58.8386 23.2659C58.1536 22.6238 57.1583 22.3027 55.8526 22.3027C54.9536 22.3027 54.1188 22.4632 53.3482 22.7843C52.5776 23.1054 51.9247 23.5335 51.3896 24.0686L50.1695 22.6238C50.7903 22.003 51.6037 21.4893 52.6097 21.0826C53.6371 20.6759 54.793 20.4726 56.0773 20.4726C56.8907 20.4726 57.6506 20.5903 58.357 20.8257C59.0633 21.0398 59.6841 21.3716 60.2192 21.8211C60.7543 22.2706 61.1717 22.8378 61.4714 23.5228C61.7711 24.2077 61.9209 25.0104 61.9209 25.9309V32.5129C61.9209 33.0909 61.9423 33.6902 61.9851 34.311C62.028 34.9317 62.0922 35.4561 62.1778 35.8842H60.2192C60.155 35.5203 60.1015 35.1243 60.0587 34.6962C60.0159 34.2681 59.9945 33.8507 59.9945 33.444H59.9303C59.2453 34.4501 58.464 35.1779 57.5864 35.6274C56.7302 36.0555 55.692 36.2695 54.4719 36.2695C53.894 36.2695 53.2947 36.1839 52.6739 36.0127C52.0746 35.8628 51.518 35.606 51.0043 35.2421C50.512 34.8782 50.0946 34.4073 49.7521 33.8293C49.431 33.2514 49.2705 32.545 49.2705 31.7102C49.2705 30.5544 49.5595 29.6446 50.1374 28.9811C50.7368 28.2961 51.5287 27.7931 52.5134 27.472C53.498 27.1295 54.6218 26.9155 55.8847 26.8299C57.169 26.7228 58.4961 26.6693 59.866 26.6693V26.1877ZM59.2239 28.371C58.3249 28.371 57.4152 28.4138 56.4947 28.4995C55.5957 28.5637 54.7716 28.7135 54.0224 28.949C53.2947 29.163 52.6953 29.4841 52.2244 29.9122C51.7535 30.3403 51.518 30.9075 51.518 31.6139C51.518 32.149 51.6144 32.5985 51.807 32.9624C52.0211 33.3263 52.2993 33.626 52.6418 33.8615C52.9843 34.0755 53.3589 34.236 53.7656 34.3431C54.1937 34.4287 54.6218 34.4715 55.0499 34.4715C55.8205 34.4715 56.5054 34.3431 57.1048 34.0862C57.7041 33.8079 58.2071 33.444 58.6138 32.9945C59.0205 32.5236 59.3309 31.9885 59.545 31.3892C59.759 30.7898 59.866 30.1584 59.866 29.4948V28.371H59.2239Z" fill="white"/>
<path d="M72.3617 33.3477V35.8842H70.1784V11.6108H72.3617V23.4586H72.4259C73.0681 22.4739 73.9029 21.7355 74.9303 21.2431C75.9577 20.7294 77.0173 20.4726 78.109 20.4726C79.2862 20.4726 80.3458 20.6759 81.2876 21.0826C82.2508 21.4893 83.0642 22.0458 83.7278 22.7522C84.4128 23.4586 84.9372 24.2934 85.3011 25.2566C85.6864 26.2198 85.879 27.258 85.879 28.371C85.879 29.4841 85.6864 30.5223 85.3011 31.4855C84.9372 32.4487 84.4128 33.2835 83.7278 33.9899C83.0642 34.6962 82.2508 35.2528 81.2876 35.6595C80.3458 36.0662 79.2862 36.2695 78.109 36.2695C77.0173 36.2695 75.9577 36.0234 74.9303 35.531C73.9029 35.0387 73.0681 34.311 72.4259 33.3477H72.3617ZM83.5673 28.371C83.5673 27.5362 83.4388 26.755 83.182 26.0272C82.9251 25.278 82.5505 24.6358 82.0582 24.1007C81.5873 23.5442 80.9986 23.1054 80.2923 22.7843C79.5859 22.4632 78.7832 22.3027 77.8842 22.3027C77.0494 22.3027 76.2788 22.4632 75.5725 22.7843C74.8661 23.084 74.256 23.5121 73.7423 24.0686C73.2286 24.6037 72.8219 25.2459 72.5222 25.9951C72.244 26.7228 72.1048 27.5148 72.1048 28.371C72.1048 29.2272 72.244 30.0299 72.5222 30.7791C72.8219 31.5069 73.2286 32.1383 73.7423 32.6735C74.256 33.2086 74.8661 33.6367 75.5725 33.9578C76.2788 34.2574 77.0494 34.4073 77.8842 34.4073C78.7832 34.4073 79.5859 34.2574 80.2923 33.9578C80.9986 33.6367 81.5873 33.2086 82.0582 32.6735C82.5505 32.1169 82.9251 31.4748 83.182 30.747C83.4388 29.9978 83.5673 29.2058 83.5673 28.371Z" fill="white"/>
<path d="M95.3417 35.8842H93.1584V20.8578H95.3417V35.8842ZM95.7912 15.0785C95.7912 15.528 95.6307 15.9026 95.3096 16.2022C94.9886 16.4805 94.6354 16.6196 94.2501 16.6196C93.8648 16.6196 93.5116 16.4805 93.1905 16.2022C92.8694 15.9026 92.7089 15.528 92.7089 15.0785C92.7089 14.629 92.8694 14.2651 93.1905 13.9868C93.5116 13.6871 93.8648 13.5373 94.2501 13.5373C94.6354 13.5373 94.9886 13.6871 95.3096 13.9868C95.6307 14.2651 95.7912 14.629 95.7912 15.0785Z" fill="white"/>
<path d="M105.969 35.8842H103.786V11.6108H105.969V35.8842Z" fill="white"/>
<path d="M116.596 35.8842H114.412V20.8578H116.596V35.8842ZM117.045 15.0785C117.045 15.528 116.884 15.9026 116.563 16.2022C116.242 16.4805 115.889 16.6196 115.504 16.6196C115.119 16.6196 114.765 16.4805 114.444 16.2022C114.123 15.9026 113.963 15.528 113.963 15.0785C113.963 14.629 114.123 14.2651 114.444 13.9868C114.765 13.6871 115.119 13.5373 115.504 13.5373C115.889 13.5373 116.242 13.6871 116.563 13.9868C116.884 14.2651 117.045 14.629 117.045 15.0785Z" fill="white"/>
<path d="M131.75 22.688H127.512V31.4534C127.512 32.0099 127.566 32.4701 127.673 32.834C127.78 33.1979 127.93 33.4869 128.122 33.7009C128.336 33.8936 128.582 34.0327 128.861 34.1183C129.139 34.1825 129.439 34.2146 129.76 34.2146C130.059 34.2146 130.37 34.1718 130.691 34.0862C131.033 34.0006 131.354 33.8829 131.654 33.733L131.75 35.6274C131.365 35.7772 130.958 35.8842 130.53 35.9484C130.124 36.0341 129.674 36.0769 129.182 36.0769C128.775 36.0769 128.347 36.0234 127.897 35.9163C127.448 35.8093 127.03 35.606 126.645 35.3063C126.26 35.0066 125.939 34.5999 125.682 34.0862C125.447 33.5725 125.329 32.8982 125.329 32.0634V22.688H122.214V20.8578H125.329V16.6196H127.512V20.8578H131.75V22.688Z" fill="white"/>
<path d="M142.904 33.5404H142.968L147.624 20.8578H150L142.519 39.7693C142.069 40.9251 141.491 41.8456 140.785 42.5305C140.1 43.2369 139.105 43.5901 137.799 43.5901C137.135 43.5901 136.482 43.5259 135.84 43.3974L136.065 41.4067C136.579 41.578 137.114 41.6636 137.67 41.6636C138.42 41.6636 139.008 41.4282 139.436 40.9572C139.864 40.5077 140.239 39.8549 140.56 38.9987L141.78 35.8521L135.359 20.8578H137.799L142.904 33.5404Z" fill="white"/>
<path d="M117.045 15.0788C117.045 15.5283 116.885 15.9029 116.564 16.2025C116.243 16.4808 115.889 16.6199 115.504 16.6199C115.119 16.6199 114.766 16.4808 114.445 16.2025C114.123 15.9029 113.963 15.5283 113.963 15.0788C113.963 14.6293 114.123 14.2654 114.445 13.9871C114.766 13.6874 115.119 13.5376 115.504 13.5376C115.889 13.5376 116.243 13.6874 116.564 13.9871C116.885 14.2654 117.045 14.6293 117.045 15.0788Z" fill="#1B519A"/>
<path d="M95.7903 15.0788C95.7903 15.5283 95.6298 15.9029 95.3087 16.2025C94.9877 16.4808 94.6345 16.6199 94.2492 16.6199C93.8639 16.6199 93.5107 16.4808 93.1896 16.2025C92.8685 15.9029 92.708 15.5283 92.708 15.0788C92.708 14.6293 92.8685 14.2654 93.1896 13.9871C93.5107 13.6874 93.8639 13.5376 94.2492 13.5376C94.6345 13.5376 94.9877 13.6874 95.3087 13.9871C95.6298 14.2654 95.7903 14.6293 95.7903 15.0788Z" fill="#5BF7D5"/>
<path d="M20.7583 22.046C21.165 21.1683 21.8392 20.4727 22.7811 19.959C23.7229 19.4452 24.7289 19.1884 25.7992 19.1884C27.7042 19.1884 29.1277 19.7556 30.0695 20.8901C31.0327 22.0246 31.5143 23.5229 31.5143 25.3852V34.6001H29.331V26.2842C29.331 25.4922 29.2668 24.7751 29.1384 24.133C29.0099 23.4908 28.7852 22.945 28.4641 22.4955C28.1644 22.0246 27.747 21.6607 27.2119 21.4038C26.6982 21.1469 26.0453 21.0185 25.2533 21.0185C24.6754 21.0185 24.1082 21.1362 23.5516 21.3717C23.0165 21.6072 22.5349 21.971 22.1068 22.4634C21.6787 22.9343 21.3362 23.5443 21.0794 24.2935C20.8225 25.0213 20.6941 25.8882 20.6941 26.8942V34.6001H18.5107V10.3267H20.6941V22.046H20.7583Z" fill="white"/>
<path fill-rule="evenodd" clip-rule="evenodd" d="M36.0855 9.36315L39.1859 6.1526C39.0035 5.99442 38.8113 5.82745 38.61 5.65259C38.5091 5.56835 38.4062 5.47934 38.3007 5.38818C38.0759 5.19374 37.8397 4.98948 37.5872 4.80071C37.5702 4.78894 37.5532 4.77713 37.5361 4.76529L34.8677 8.27183C35.0437 8.41278 35.1955 8.55493 35.3405 8.69077C35.4286 8.77329 35.5142 8.85347 35.6013 8.92964C35.7308 9.0462 35.8548 9.15698 35.9732 9.26279C36.0112 9.29675 36.0486 9.33019 36.0855 9.36315ZM39.4847 9.6872C39.5595 9.78985 39.8602 10.2025 40.3627 10.8903C40.6736 11.2772 40.9874 11.8019 41.3418 12.4267C41.4045 12.5383 41.4718 12.6513 41.5408 12.7671C41.6652 12.9759 41.7952 13.194 41.9133 13.4302C42.0129 13.6473 42.1158 13.8724 42.2222 14.1051C42.2988 14.2729 42.3774 14.4447 42.4578 14.6203C43.1788 16.3081 43.9134 18.4544 44.14 21.0073C44.3894 23.545 44.2267 26.4719 43.3025 29.4632C42.3768 32.4339 40.6561 35.4714 38.2123 37.9861C38.0237 38.1967 37.8004 38.3926 37.5764 38.5893C37.454 38.6967 37.3314 38.8043 37.214 38.9146C37.0919 39.0171 36.9678 39.1318 36.8436 39.2467C36.6214 39.4523 36.3987 39.6583 36.1856 39.7953C35.99 39.9339 35.7966 40.0769 35.6026 40.2203C35.0611 40.6205 34.5158 41.0236 33.9091 41.3421C32.3364 42.332 30.5521 43.0156 28.7155 43.5475C26.8652 44.0654 24.9115 44.2552 22.9509 44.2652C20.9831 44.224 19.0146 43.8832 17.1019 43.3218C15.1972 42.7181 13.3904 41.817 11.7114 40.7198C10.0266 39.5544 8.68076 38.2823 7.25029 36.6152C6.102 35.1103 4.99347 33.3349 4.253 31.5134C3.53779 29.6609 3.04257 27.7362 2.85312 25.7901C2.70569 23.8422 2.78141 21.8967 3.14075 20.0232C3.54817 18.1647 4.11829 16.3612 4.9774 14.728C5.83371 13.1267 6.86965 11.5465 8.04054 10.3507C8.41397 9.88517 8.94881 9.41025 9.47816 8.94021C9.65612 8.78219 9.83345 8.62473 10.0038 8.46835L10.1344 8.35092L10.1996 8.2922L10.2156 8.2788C10.1907 8.30142 10.1573 8.33292 10.2004 8.29549L10.4607 8.10672L10.9777 7.73211C11.1033 7.64524 11.2252 7.55373 11.3469 7.46244C11.5629 7.3003 11.7781 7.13886 12.011 7.00535C14.8468 5.22614 17.9241 4.27124 20.8008 4C23.6893 3.74265 26.3511 4.1613 28.5701 4.86656C30.001 5.30567 31.2374 5.89914 32.2966 6.51918L34.8384 3.02071C33.4138 2.21338 31.7251 1.43811 29.7609 0.903221C27.0456 0.138434 23.8249 -0.249645 20.386 0.175367C16.9589 0.612155 13.3347 1.87785 10.0746 4.08811C9.79969 4.26017 9.54496 4.4634 9.28934 4.66734C9.15726 4.77271 9.02494 4.87828 8.88948 4.97983L8.30047 5.4405L8.00529 5.67238L7.90331 5.75796L7.87262 5.78963L7.8093 5.85067L7.68381 5.97176C7.51015 6.1429 7.33633 6.30775 7.162 6.4731C6.65919 6.95 6.15208 7.43096 5.63218 8.07837C4.18567 9.67525 3.13041 11.4395 2.18066 13.3601C1.25551 15.2818 0.663136 17.3765 0.274884 19.5191C-0.0641225 21.6756 -0.0777095 23.8929 0.168969 26.0932C0.456515 28.2928 1.08732 30.4472 1.96455 32.4976C2.01719 32.6042 2.06962 32.7109 2.12204 32.8176C2.56197 33.713 3.00178 34.6082 3.56861 35.433C3.59222 35.4707 3.61578 35.5085 3.63935 35.5462C3.91117 35.9815 4.18327 36.4172 4.51541 36.8108L5.58418 38.1693C6.95098 39.6805 8.74056 41.2931 10.585 42.451C12.4731 43.5997 14.4879 44.5159 16.5832 45.1018C18.6874 45.6467 20.8328 45.9418 22.955 45.9127C25.0718 45.8348 27.1591 45.5546 29.1193 44.9348C33.0381 43.7378 36.4628 41.4507 38.9497 38.7497C41.4945 35.9528 43.1231 32.7773 43.9906 29.6619C44.8392 26.5405 44.9015 23.534 44.5609 20.9582C44.2412 18.365 43.4231 16.2156 42.6378 14.5384C42.5286 14.3189 42.422 14.1058 42.3186 13.8992C42.2259 13.7138 42.1357 13.5335 42.0485 13.3583C41.9207 13.124 41.7819 12.9079 41.6493 12.7015C41.5765 12.5881 41.5055 12.4776 41.4393 12.3686C41.0614 11.7536 40.7296 11.2381 40.405 10.8607C39.8787 10.189 39.5636 9.7864 39.4855 9.68646L39.4847 9.6872Z" fill="url(#paint0_angular_551_10519)"/>
<defs>
<radialGradient id="paint0_angular_551_10519" cx="0" cy="0" r="1" gradientUnits="userSpaceOnUse" gradientTransform="translate(38.9144 9.9574) rotate(60.6421) scale(1.47355 7.01488)">
<stop offset="0.505169" stop-color="#5CFCD6"/>
<stop offset="0.9382" stop-color="#103590"/>
</radialGradient>
</defs>
</svg>
